<?xml version="1.0" encoding="UTF-8" standalone="no"?>
<svg
   width="14"
   height="19"
   viewBox="0 0 14 19"
   fill="none"
   stroke="currentColor"
   stroke-width="2"
   stroke-linecap="round"
   stroke-linejoin="round"
   class="lucide lucide-droplet-icon lucide-droplet"
   version="1.1"
   id="svg1"
   xmlns="http://www.w3.org/2000/svg"
   xmlns:svg="http://www.w3.org/2000/svg">
  <defs
     id="defs1" />
  <path
     id="path2"
     style="fill:#000000;fill-opacity:1;stroke-width:0;stroke-dasharray:none"
     d="M 7,0 C 6.5,2.5 5,4.9 3,6.5 1,8.1 0,10 0,12 a 7,7 0 0 0 7,7 7,7 0 0 0 7,-7 C 14,10 13,8.1 11,6.5 9,4.9 7.5,2.5 7,0 Z m 0,8.320312 a 0.83990323,0.83990323 0 0 1 0.839844,0.839844 v 2.03711 h 2.037109 a 0.83990323,0.83990323 0 0 1 0.837891,0.83789 0.83990323,0.83990323 0 0 1 -0.837891,0.84375 H 7.839844 v 2.033203 A 0.83990323,0.83990323 0 0 1 7,15.755859 0.83990323,0.83990323 0 0 1 6.160156,14.912109 V 12.878906 H 4.1230469 a 0.83990323,0.83990323 0 0 1 -0.8398438,-0.84375 0.83990323,0.83990323 0 0 1 0.8398438,-0.83789 H 6.160156 V 9.160156 A 0.83990323,0.83990323 0 0 1 7,8.320312 Z" />
</svg>
